<?xml version="1.0" encoding="UTF-8"?> <svg xmlns="http://www.w3.org/2000/svg" width="308" height="26" viewBox="0 0 308 26" fill="none"><path d="M92.4454 17.428C91.9894 17.58 91.2894 17.732 90.3494 17.884L89.2574 18.064C88.1654 18.216 87.3734 18.58 87.3734 19.584C87.3734 20.464 87.9814 20.892 89.1654 20.892C91.1374 20.892 92.4454 19.584 92.4454 18.008V17.432V17.428ZM97.2734 13.876V24.472H92.8094V22.436C91.7454 23.984 89.7694 24.804 87.7054 24.804C86.2774 24.804 85.0934 24.38 84.1214 23.56C83.1494 22.708 82.6654 21.524 82.6654 20.036C82.6654 18.428 83.1814 17.272 84.2134 16.604C85.2774 15.936 86.5214 15.48 87.9774 15.268L90.6494 14.872C91.8014 14.72 92.3814 14.264 92.3814 13.508C92.3814 12.656 91.6214 12.264 90.4054 12.264C89.1014 12.264 88.2614 12.684 87.8734 13.524H83.1934C83.9094 9.98797 86.8414 8.28397 90.8294 8.28397C94.8174 8.28397 97.2694 10.196 97.2694 13.872M119.977 14.936C119.885 13.448 118.945 12.628 117.273 12.628C115.601 12.628 114.481 13.388 114.145 14.936H119.977ZM124.809 18.004H114.181C114.393 19.644 115.485 20.464 117.461 20.464C118.705 20.464 119.525 20.1 119.949 19.4H124.717C123.957 22.892 120.953 24.804 117.277 24.804C112.937 24.804 109.353 22.04 109.353 16.636C109.353 11.232 112.997 8.28397 117.397 8.28397C121.557 8.28397 124.809 10.988 124.809 16.056V18V18.004ZM108.673 20.252H107.033C106.061 20.252 105.573 19.768 105.573 18.796V12.812H108.673V8.55997H105.573V4.00797L100.777 5.34397V8.55997H98.0734V12.812H100.777V19.4C100.777 23.592 102.809 24.504 105.909 24.504H108.673V20.252ZM82.7814 13.528H81.2934C79.0174 13.528 77.6494 14.452 77.6494 17.14V24.472H72.8214V8.55997H77.6214V10.596C78.1054 9.16797 79.4734 8.55997 81.2654 8.55997H82.7854V13.528H82.7814ZM60.4454 14.936C60.7774 13.388 61.8414 12.628 63.5734 12.628C65.3054 12.628 66.1854 13.448 66.2774 14.936H60.4454ZM71.1054 16.06C71.1054 10.988 67.8574 8.28797 63.6934 8.28797C59.2894 8.28797 55.6494 11.172 55.6494 16.64C55.6494 22.108 59.2334 24.808 63.5734 24.808C67.2494 24.808 70.2534 22.896 71.0134 19.404H66.2454C65.8214 20.104 64.9974 20.468 63.7574 20.468C61.7814 20.468 60.6894 19.648 60.4774 18.008H71.1054V16.064V16.06ZM54.0854 24.472H49.2574V14.936C49.2574 13.356 48.2254 12.568 46.7374 12.568C45.0374 12.568 43.8534 13.568 43.8534 15.604V24.472H39.0254V8.55997H43.8254V10.472C44.6774 9.01597 46.4374 8.28397 48.5934 8.28397C52.2374 8.28397 54.0894 10.532 54.0894 14.42V24.472H54.0854ZM26.6494 14.936C26.9814 13.388 28.0454 12.628 29.7774 12.628C31.5094 12.628 32.3894 13.448 32.4814 14.936H26.6494ZM37.3094 16.06C37.3094 10.988 34.0614 8.28797 29.8974 8.28797C25.4934 8.28797 21.8534 11.172 21.8534 16.64C21.8534 22.108 25.4374 24.808 29.7774 24.808C33.4534 24.808 36.4574 22.896 37.2174 19.404H32.4494C32.0254 20.104 31.2014 20.468 29.9614 20.468C27.9854 20.468 26.8934 19.648 26.6814 18.008H37.3094V16.064V16.06ZM19.9854 12.844V24.472H15.5534V22.468C14.2174 24.048 12.5774 25.02 9.81338 25.02C3.76938 25.02 0.00137947 20.192 0.00137947 14.12C-0.0866205 8.37997 4.04138 2.57997 10.7534 2.72797C15.7934 2.72797 19.6214 5.73597 19.9854 10.868H14.8854C14.7934 8.80397 12.9734 7.34397 10.5134 7.34397C8.78138 7.34397 7.44538 7.97997 6.44538 9.25597C5.47338 10.532 4.98938 12.172 4.98938 14.208C4.98938 18.336 7.20538 20.464 10.3614 20.464C13.0654 20.464 14.7934 19.248 15.1614 17.216H9.54538V12.844H19.9894H19.9854Z" fill="white"></path><path d="M135.817 13.864H130.513V8.55996H135.817V13.864ZM135.817 19.168H130.513V24.472H135.817V19.168Z" fill="white"></path><path d="M300.001 20.384C300.001 18.444 298.909 17.416 297.365 16.932C296.609 16.688 295.577 16.448 294.305 16.236C291.457 15.752 290.217 15.448 290.065 13.448C290.065 11.752 291.369 10.632 293.761 10.632C295.973 10.632 297.637 11.6 297.909 13.448H299.605C299.273 10.784 297.089 9.14799 293.909 9.14799C290.729 9.14799 288.365 10.664 288.365 13.54C288.365 15.48 289.485 16.54 291.061 17.052C291.849 17.324 292.909 17.568 294.213 17.808C296.757 18.264 298.213 18.656 298.333 20.564C298.333 22.352 296.517 23.32 294.305 23.32C292.093 23.32 290.157 22.26 289.793 19.928H288.037C288.189 21.472 288.853 22.684 290.065 23.532C291.305 24.38 292.761 24.804 294.457 24.804C296.001 24.804 297.333 24.44 298.393 23.684C299.453 22.928 299.997 21.804 299.997 20.384M275.053 15.84C275.233 12.476 277.689 10.66 280.265 10.66C283.021 10.66 285.049 12.54 285.049 15.84H275.053ZM286.685 17.324V16.444C286.685 11.628 284.081 9.14399 280.353 9.14399C276.625 9.14399 273.385 11.808 273.385 17.048C273.385 22.288 276.537 24.804 280.201 24.804C283.109 24.804 285.745 23.288 286.473 20.232H284.869C284.233 22.26 282.353 23.32 280.297 23.32C277.509 23.32 274.997 21.292 274.997 17.324H286.689H286.685ZM271.281 14.084C271.281 10.844 269.189 9.14799 266.133 9.14799C263.497 9.14799 261.621 10.388 260.621 12.42V9.45199H259.017V24.476H260.621V16.388C260.621 12.752 263.137 10.632 265.893 10.632C268.073 10.632 269.649 11.936 269.649 14.328V24.476H271.285V14.088L271.281 14.084ZM254.089 24.472H255.693V9.44799H254.089V24.472ZM253.905 5.78399H255.905V3.27199H253.905V5.78799V5.78399ZM250.253 19.324C249.861 21.868 248.161 23.26 245.617 23.26C242.133 23.26 240.285 20.656 240.285 16.928C240.285 13.2 242.193 10.656 245.709 10.656C248.161 10.656 249.949 11.928 250.221 14.2H251.825C251.461 10.96 249.037 9.13999 245.737 9.13999C241.165 9.13999 238.649 12.592 238.649 17.016C238.649 21.44 241.013 24.8 245.525 24.8C249.009 24.8 251.461 22.8 251.857 19.316H250.253V19.324ZM234.789 24.472H236.393V9.44799H234.789V24.472ZM234.609 5.78399H236.609V3.27199H234.609V5.78799V5.78399ZM229.925 16.932C229.925 21.292 227.349 23.324 224.685 23.324C222.021 23.324 219.413 21.232 219.413 16.932C219.413 12.632 221.865 10.66 224.653 10.66C227.441 10.66 229.925 12.568 229.925 16.932ZM231.501 2.93599H229.897V12.084C229.049 10.42 226.897 9.14399 224.445 9.14399C220.993 9.14399 217.749 11.596 217.749 16.9C217.749 22.204 220.989 24.804 224.445 24.804C226.989 24.804 229.109 23.32 229.989 21.624V24.472H231.505V2.93599H231.501ZM204.613 15.84C204.793 12.476 207.249 10.66 209.821 10.66C212.577 10.66 214.605 12.54 214.605 15.84H204.609H204.613ZM216.245 17.324V16.444C216.245 11.628 213.641 9.14399 209.913 9.14399C206.185 9.14399 202.945 11.808 202.945 17.048C202.945 22.288 206.097 24.804 209.761 24.804C212.669 24.804 215.305 23.288 216.033 20.232H214.429C213.793 22.26 211.913 23.32 209.857 23.32C207.069 23.32 204.557 21.292 204.557 17.324H216.249H216.245ZM200.841 13.508C200.841 10.72 198.841 9.14799 196.145 9.14799C193.933 9.14799 191.905 10.208 191.085 12.236C190.509 10.208 188.753 9.14799 186.601 9.14799C184.449 9.14799 182.725 10.176 181.965 11.996V9.45199H180.361V24.476H181.965V15.42C181.965 12.332 184.205 10.572 186.477 10.572C188.417 10.572 189.809 11.844 189.809 14.176V24.476H191.385V15.42C191.385 12.392 193.565 10.572 195.869 10.572C197.809 10.572 199.233 11.844 199.233 14.176V24.476H200.837V13.512L200.841 13.508ZM176.441 16.812C176.441 20.9 174.109 23.264 171.049 23.264C167.989 23.264 165.565 20.812 165.565 17.056C165.565 13.3 167.717 10.724 170.957 10.724C173.985 10.724 176.441 13.028 176.441 16.812ZM178.105 17.024C178.105 12.208 175.137 9.14799 170.957 9.14799C166.777 9.14799 163.901 12.176 163.901 16.992C163.901 21.808 166.869 24.808 171.021 24.808C175.173 24.808 178.109 21.84 178.109 17.024M160.033 24.472H161.637V9.44799H160.033V24.472ZM159.853 5.78399H161.853V3.27199H159.853V5.78799V5.78399ZM155.805 18.416C155.805 20.78 154.077 22.96 150.897 22.96H144.173V14.024H151.141C154.081 14.024 155.805 16.116 155.805 18.416ZM144.177 12.508V4.78399H150.933C153.509 4.78399 155.021 6.38799 155.021 8.41999C155.021 10.452 153.325 12.508 150.265 12.508H144.177ZM157.653 18.476C157.653 16.144 156.261 13.964 153.685 13.116C155.625 12.116 156.685 10.208 156.685 8.14799C156.685 5.63199 154.805 3.27199 151.325 3.27199H142.481V24.476H150.993C155.233 24.476 157.657 21.568 157.657 18.48" fill="white"></path><path d="M304.509 0C306.478 0 308.001 1.45196 308.001 3.51528C308.001 5.54804 306.478 7 304.509 7C302.54 7 301.001 5.54804 301.001 3.51528C301.001 1.45196 302.54 0 304.509 0ZM304.509 6.40393C306.109 6.40393 307.371 5.24236 307.371 3.51528C307.371 1.77293 306.109 0.596069 304.509 0.596069C302.909 0.596069 301.632 1.77293 301.632 3.51528C301.632 5.24236 302.909 6.40393 304.509 6.40393ZM305.986 2.87336C305.986 3.30131 305.771 3.72926 305.278 3.92795L306.094 5.19651H305.355L304.601 4.01965H303.94V5.19651H303.294V1.66594H304.694C305.586 1.66594 305.986 2.26201 305.986 2.87336ZM303.94 2.27729V3.42358H304.724C305.14 3.42358 305.34 3.17904 305.34 2.87336C305.34 2.52183 305.14 2.27729 304.724 2.27729H303.94Z" fill="white"></path></svg> 