<svg width="200" height="46" viewBox="0 0 200 46" fill="none" xmlns="http://www.w3.org/2000/svg">
<g clip-path="url(#clip0_550_7816)">
<path d="M23.1957 13.3936H17.8495C17.7693 13.3936 17.7025 13.4471 17.6824 13.5206L11.8685 32.3792C11.8351 32.4928 11.9219 32.6064 12.0356 32.6064H17.3817C17.4619 32.6064 17.5287 32.5529 17.5488 32.4794L23.3627 13.6208C23.3962 13.5072 23.3093 13.3936 23.1957 13.3936Z" fill="#13274C"/>
<path d="M28.2545 13.3936C26.1695 13.3936 24.4587 15.0977 24.4587 17.1894C24.4587 19.2744 26.1628 20.9852 28.2545 20.9852C30.3462 20.9852 32.0503 19.2811 32.0503 17.1894C32.0503 15.1044 30.3462 13.3936 28.2545 13.3936Z" fill="#13274C"/>
<path d="M40.691 41.4743H4.27693C4.12991 41.4743 4.00962 41.354 4.00962 41.207V4.79297C4.00962 4.64595 4.12991 4.52566 4.27693 4.52566H40.691C40.838 4.52566 40.9583 4.64595 40.9583 4.79297V41.207C40.9583 41.354 40.838 41.4743 40.691 41.4743ZM0 1.34469V44.6486C0 45.1097 0.374231 45.4773 0.828655 45.4773H44.1326C44.5937 45.4773 44.9612 45.103 44.9612 44.6486V1.34469C44.9612 0.883586 44.587 0.516037 44.1326 0.516037H0.828655C0.374231 0.516037 0 0.890268 0 1.34469Z" fill="#13274C"/>
<path d="M71.0505 25.5428H67.5621V33.0274H64.047V12.9726H72.8548C76.8244 12.9726 79.4106 15.5588 79.4106 19.2543C79.4106 22.9499 77.0649 24.7609 74.6592 25.1485L79.5576 33.0274H75.5012L71.0505 25.5428ZM72.3737 16.0734H67.5621V22.4487H72.3737C74.3585 22.4487 75.8019 21.1856 75.8019 19.261C75.8019 17.3364 74.3585 16.0734 72.3737 16.0734Z" fill="#13274C"/>
<path d="M101.664 29.1782H92.1612L90.6843 33.0274H86.8351L94.714 12.9726H99.1045L106.983 33.0274H103.134L101.657 29.1782H101.664ZM93.1569 26.0841H100.675L96.9193 15.9531L93.1636 26.0841H93.1569Z" fill="#13274C"/>
<path d="M115.196 12.9726H122.654C128.909 12.9726 133.146 17.1226 133.146 23.0167C133.146 28.9108 128.909 33.0274 122.654 33.0274H115.196V12.9726ZM122.654 29.9333C127.011 29.9333 129.538 26.8058 129.538 23.0167C129.538 19.2276 127.132 16.0734 122.654 16.0734H118.718V29.9333H122.654Z" fill="#13274C"/>
<path d="M142.569 12.9726H146.084V33.0274H142.569V12.9726Z" fill="#13274C"/>
<path d="M169.086 29.1782H159.583L158.106 33.0274H154.257L162.136 12.9726H166.526L174.405 33.0274H170.556L169.086 29.1782ZM160.572 26.0841H168.09L164.334 15.9531L160.579 26.0841H160.572Z" fill="#13274C"/>
<path d="M186.14 18.4123V33.0274H182.625V12.9726H186.234L196.485 27.1934V12.9726H200V33.0274H196.605L186.14 18.4123Z" fill="#13274C"/>
</g>
<defs>
<clipPath id="clip0_550_7816">
<rect width="200" height="44.9679" fill="white" transform="translate(0 0.516037)"/>
</clipPath>
</defs>
</svg>
