<svg width="241" height="99" viewBox="0 0 241 99" fill="none" xmlns="http://www.w3.org/2000/svg">
<path d="M145.529 81.8005C145.529 85.0087 144.549 87.5931 142.589 89.4646C140.628 91.3361 137.687 92.2273 133.677 92.2273H100.525V55.9563H132.696C136.528 55.9563 139.291 56.8475 140.984 58.6298C142.678 60.4122 143.48 62.8184 143.48 65.6701C143.48 68.5219 143.212 68.4328 142.767 69.6804C142.321 70.9281 141.608 71.9975 140.628 72.9778C143.925 74.671 145.529 77.6119 145.529 81.8005ZM106.763 71.3737H131.181C132.607 71.3737 133.766 71.3737 134.568 71.1063C135.37 70.9281 135.994 70.4825 136.528 69.7696C137.063 69.0566 137.241 67.8981 137.241 66.294C137.241 64.6898 136.974 63.5313 136.439 62.8184C135.905 62.1054 135.281 61.6598 134.479 61.4816C133.677 61.3034 132.518 61.2142 131.092 61.2142H106.763V71.3737ZM136.618 86.7911C137.42 86.6128 138.044 86.1672 138.578 85.3652C139.113 84.5631 139.38 83.4046 139.38 81.7113C139.38 80.0181 139.113 78.8596 138.578 78.0575C138.044 77.2555 137.42 76.8099 136.618 76.6316C135.816 76.4534 134.657 76.3643 133.231 76.3643H106.763V86.9693H133.231C134.657 86.9693 135.816 86.9693 136.618 86.7019V86.7911Z" fill="#009FB0"/>
<path d="M155.867 92.3161H149.629V56.0452H155.867V92.3161Z" fill="#009FB0"/>
<path d="M166.116 87.9494C162.373 84.7411 160.501 80.107 160.501 74.047C160.501 67.987 162.373 63.442 166.116 60.2338C169.859 57.0255 175.562 55.4214 183.315 55.4214C191.069 55.4214 196.772 57.0255 200.515 60.2338C204.258 63.442 206.13 68.0761 206.13 73.9579C206.13 79.8397 204.258 84.5629 200.515 87.7712C196.772 90.9794 191.069 92.6726 183.315 92.6726C175.562 92.6726 169.77 91.0685 166.116 87.8603V87.9494ZM195.97 84.5629C198.644 82.5132 199.981 79.0376 199.981 74.1361C199.981 69.2346 199.357 68.2544 198.198 66.2938C196.951 64.3332 195.168 62.9073 192.762 62.0161C190.356 61.1249 187.237 60.6793 183.405 60.6793C179.573 60.6793 176.453 61.1249 174.047 62.0161C171.641 62.9073 169.859 64.244 168.611 66.2046C167.363 68.1652 166.829 70.7497 166.829 74.1361C166.829 77.5226 167.453 80.107 168.611 82.0676C169.859 84.0282 171.641 85.4541 174.047 86.3453C176.453 87.2365 179.573 87.682 183.405 87.682C189.108 87.682 193.297 86.6126 195.97 84.5629Z" fill="#009FB0"/>
<path d="M109.971 36.6175C109.971 37.5978 110.328 38.3998 111.041 39.0237C111.754 39.6475 113.001 40.0931 114.873 40.4495C116.744 40.806 119.329 40.9843 122.626 40.9843C125.924 40.9843 127.884 40.8951 129.399 40.7169C131.003 40.5387 132.073 40.1822 132.696 39.8257C133.32 39.3801 133.588 38.8454 133.588 38.1325C133.588 37.4195 133.32 36.7066 132.786 36.3501C132.251 35.9937 131.181 35.7263 129.577 35.5481C127.973 35.3698 125.389 35.1916 121.735 35.1025C116.21 34.9242 111.754 34.3895 108.546 33.6766C105.337 32.8745 103.02 31.716 101.505 30.1119C99.9902 28.5078 99.2773 26.2798 99.2773 23.5172C99.2773 20.7545 101.149 16.8333 104.803 15.1401C108.456 13.4468 113.982 12.5557 121.289 12.5557C128.597 12.5557 134.122 13.536 137.865 15.4966C141.608 17.4571 143.48 20.6654 143.48 25.1213H131.984C131.984 24.141 131.627 23.428 130.825 22.8933C130.023 22.3586 128.775 22.0022 127.082 21.7348C125.389 21.5566 123.161 21.3783 120.309 21.3783C117.457 21.3783 115.764 21.3783 114.338 21.6457C113.001 21.8239 112.021 22.0913 111.486 22.4477C110.952 22.8042 110.684 23.3389 110.684 24.0519C110.684 24.7648 110.952 25.2995 111.486 25.656C112.021 26.0125 113.001 26.2798 114.516 26.3689C115.942 26.5472 118.349 26.6363 121.646 26.8145C127.349 27.0819 131.716 27.5275 134.835 27.973C137.954 28.5078 140.45 29.4881 142.232 31.0031C144.014 32.5181 144.906 34.746 144.906 37.776C144.906 40.806 144.014 43.4795 142.232 45.2619C140.45 47.0443 137.865 48.2919 134.568 48.9157C131.271 49.6287 127.082 49.896 121.913 49.896C116.744 49.896 112.199 49.5396 108.813 48.7375C105.426 48.0246 102.842 46.6878 100.971 44.7272C99.1882 42.7666 98.297 40.0931 98.297 36.6175H109.793H109.971Z" fill="#2E3A8D"/>
<path d="M178.325 42.1428H159.521L156.402 49.2722H143.747L160.769 12.823H177.166L194.099 49.2722H181.533L178.414 42.1428H178.325ZM174.671 33.9439L168.967 20.8436L163.175 33.9439H174.671Z" fill="#2E3A8D"/>
<path d="M239.549 33.231C240.529 34.8351 240.975 36.6175 240.975 38.5781C240.975 41.7863 239.994 44.3707 238.034 46.3313C236.073 48.2919 233.043 49.2722 229.122 49.2722H195.792V12.823H227.696C231.617 12.823 234.38 13.6251 236.073 15.3183C237.766 17.0115 238.568 19.3286 238.568 22.2695C238.568 25.2104 238.301 24.6757 237.855 25.8342C237.321 26.9927 236.608 28.1513 235.717 29.1316C237.41 30.201 238.658 31.5377 239.638 33.1419L239.549 33.231ZM207.199 26.3689H223.151C224.042 26.3689 224.755 26.3689 225.201 26.2798C225.735 26.2798 226.181 25.9233 226.538 25.5668C226.894 25.1213 227.072 24.4974 227.072 23.6063C227.072 22.7151 226.894 22.0021 226.538 21.6457C226.181 21.2001 225.735 21.0218 225.201 20.9327C224.666 20.9327 223.953 20.8436 223.151 20.8436H207.199V26.5471V26.3689ZM227.607 40.6278C228.142 40.5386 228.587 40.2713 228.944 39.8257C229.3 39.3801 229.478 38.7563 229.478 37.8651C229.478 36.9739 229.3 36.261 228.944 35.9045C228.587 35.4589 228.142 35.2807 227.607 35.1916C227.072 35.1916 226.359 35.1025 225.557 35.1025H207.199V40.8951H225.557C226.448 40.8951 227.161 40.8951 227.607 40.7169V40.6278Z" fill="#2E3A8D"/>
<path d="M79.2257 78.0573C79.2257 78.0573 79.2257 78.0573 79.2257 78.1465C78.2454 79.3941 76.4631 79.7506 75.0372 78.9485L46.4304 62.4617L7.93147 84.7412C6.50558 85.5432 4.63411 85.1868 3.65381 83.85C2.49528 82.2459 3.02999 80.1071 4.63411 79.1268L46.4304 54.9758L78.3345 73.4232C80.0278 74.4035 80.4734 76.6315 79.3148 78.2356L79.2257 78.0573Z" fill="#009FB0"/>
<path d="M94.6432 74.2254C93.8411 76.0078 91.7023 76.7207 90.009 75.7404L48.1237 51.5895V14.7838C48.1237 12.8232 49.8169 11.3082 51.7775 11.5756C53.7381 11.8429 51.7775 11.5756 51.8666 11.5756C53.4707 11.7538 54.7184 13.1797 54.7184 14.7838V47.8465L93.2173 70.126C94.6432 70.9281 95.267 72.7995 94.554 74.3145L94.6432 74.2254Z" fill="#009FB0"/>
<path d="M57.3028 97.6631C53.738 98.5542 50.0842 98.9998 46.2521 98.9998C42.4201 98.9998 38.7663 98.5542 35.2015 97.6631L46.2521 91.3357L57.3028 97.6631Z" fill="#2E3A8D"/>
<path d="M69.6902 92.6726C67.3731 94.0094 64.9669 95.1679 62.4716 96.1482L46.3413 86.7908L30.211 96.1482C27.7157 95.1679 25.2204 94.0094 22.9924 92.6726L46.4304 79.1267L69.8684 92.6726H69.6902Z" fill="#2E3A8D"/>
<path d="M78.691 85.7216C76.9978 87.3257 75.2154 88.8407 73.3439 90.2666L46.2521 74.671L19.1603 90.2666C17.2888 88.9298 15.5065 87.4148 13.8132 85.7216L46.2521 67.0068L78.691 85.7216Z" fill="#2E3A8D"/>
<path d="M1.87146 39.8259C2.85176 36.3503 4.36676 32.8747 6.23823 29.5773C8.10971 26.2799 10.4268 23.3391 12.9221 20.6655V33.4094L1.87146 39.7367V39.8259Z" fill="#2E3A8D"/>
<path d="M0 53.0152C0 50.3416 0.178236 47.6681 0.623825 44.9946L16.7541 35.6372V17.0116C18.8039 15.3183 21.0318 13.8033 23.3489 12.4666V39.4693L0 53.0152Z" fill="#2E3A8D"/>
<path d="M1.51511 64.3332C0.891281 62.1053 0.53481 59.7882 0.267456 57.382L27.3593 41.7864V10.506C29.4981 9.52574 31.726 8.72368 33.954 8.09985V45.5293L1.51511 64.3332Z" fill="#2E3A8D"/>
<path d="M79.6714 20.6655C82.1667 23.3391 84.3946 26.2799 86.3552 29.5773C88.3158 32.8747 89.7417 36.2611 90.722 39.8259L79.6714 33.4985V20.7546V20.6655Z" fill="#2E3A8D"/>
<path d="M69.1554 12.4666C71.4725 13.8033 73.7004 15.3183 75.7501 17.0116V35.6372L91.8804 44.9946C92.326 47.6681 92.5043 50.3416 92.5043 53.0152L69.0663 39.4693V12.4666H69.1554Z" fill="#2E3A8D"/>
<path d="M58.6395 8.09985C60.8675 8.72368 63.0954 9.52574 65.2342 10.506V41.7864L92.3261 57.382C92.0587 59.6991 91.7022 62.0161 91.0784 64.3332L58.6395 45.6185V8.09985Z" fill="#2E3A8D"/>
<path d="M44.4698 3.37658V51.6784L12.5656 70.1258C10.8724 71.1061 8.64443 70.3932 7.93149 68.6108C7.21854 66.8285 7.93149 68.6108 7.93149 68.5217C7.30766 67.0067 7.93149 65.3135 9.35737 64.5114L37.9642 48.0246V3.37658C37.9642 1.68334 39.2118 0.257451 40.9051 0.0792158C42.8657 -0.0990198 44.4698 1.41598 44.4698 3.37658Z" fill="#009FB0"/>
</svg>
