<?xml version="1.0" encoding="UTF-8"?>
<svg id="Synaptics" xmlns="http://www.w3.org/2000/svg" version="1.1" viewBox="0 0 555 140">
  <!-- Generator: Adobe Illustrator 29.5.1, SVG Export Plug-In . SVG Version: 2.1.0 Build 141)  -->
  <g>
    <circle cx="57.637" cy="70" r="47.89" fill="#0a5ce0"/>
    <path d="M68.87,43.284l-.178-.351-.366.146c-.138.055-13.935,5.59-24.393,14.073-17.325,14.741-8.211,28.925-8.117,29.067,0,0,.764,1.173,1.394,1.623-.594-1.529-.616-1.97-.616-1.97-.019-.072-1.787-7.254,3.609-16.756,6.507-12.192,24.012-20.62,26.83-21.916,7.018,15.257,6.486,31.635-1.338,39.951-2.173,2.371-5.707,3.845-9.221,3.845-.49,0-.981-.028-1.443-.083-3.29-.508-5.332-1.467-7.046-3.309-1.686-1.845-2.441-4.233-2.02-6.391.692-3.688,3.729-6.689,7.073-6.98.069-.008.126-.021.191-.03.723-.068,2.174-.205,2.459-.232.384-.036.477-.339.345-.459-.132-.12-.454-.262-.704-.374-.555-.247-1.502-.466-1.704-.512-.398-.096-.972-.175-1.839-.248l-.118-.006c-.143-.008-.39-.022-.718-.022-2.477,0-8.421.809-10.115,8.296-.843,3.374-.42,6.456,1.258,9.161,2.42,3.901,6.866,6.077,10.239,6.815,1.717.37,3.318.448,4.359.448h0c3.417,0,8.359-.815,12.502-4.699,1.795-1.665,3.263-3.749,4.488-6.371,8.034-17.061-4.682-42.459-4.811-42.714Z" fill="#fff"/>
  </g>
  <path d="M140.918,43.325c-10.168,0-17.547,6.323-17.547,15.034v.192c0,9.71,9.649,12.51,17.403,14.76l.416.121c6.487,1.836,11.855,3.735,11.855,8.393v.193c0,4.626-4.239,7.856-10.307,7.856-5.751,0-11.344-2.066-16.625-6.139l-1.18-.911-.04.054v9.251c5.207,3.157,11.71,5.113,17.557,5.113,10.612,0,18.314-6.646,18.314-15.803v-.192c0-10.336-10.737-13.362-17.142-15.167-7.34-2.12-12.535-3.942-12.535-8.106v-.192c0-4.174,3.964-7.088,9.64-7.088,4.633,0,9.684,1.656,14.221,4.661l1.244.824v-8.893c-4.725-2.472-10.317-3.962-15.274-3.962Z" fill="#0f1820"/>
  <path d="M246.313,43.385c-6.624,0-12.127,2.428-16.148,7.074v-5.924h-7.622v51.483h7.622v-29.437c0-9.246,6.509-15.957,15.477-15.957,8.793,0,14.043,5.679,14.043,15.192v30.202h7.622v-31.063c0-13.103-8.24-21.569-20.993-21.569Z" fill="#0f1820"/>
  <path d="M405.157,28.59h-7.622v15.915h-7.084v7.239h7.084v30.598c0,9.17,5.807,14.867,15.154,14.867,3.135,0,5.775-.573,8.56-1.858l.852-.393v-7.602l-2.065.924c-2.596,1.162-4.379,1.595-6.581,1.595-5.66,0-8.296-2.546-8.296-8.012v-30.119h17.135v-7.239h-17.135v-15.915Z" fill="#0f1820"/>
  <rect x="430.973" y="28.517" width="7.621" height="8.173" fill="#0f1820"/>
  <rect x="430.973" y="28.494" width="7.621" height=".024" fill="#0f1820"/>
  <rect x="430.974" y="44.569" width="7.621" height="51.448" fill="#0f1820"/>
  <g>
    <path d="M361.999,43.421c-7.276,0-13.529,3.047-18.638,9.069v-7.985h-7.622v66.216h7.622v-22.169c4.999,5.79,11.252,8.719,18.638,8.719,12.389,0,25.203-10.072,25.203-26.925v-.19c0-16.734-12.814-26.734-25.203-26.734ZM379.197,70.537c0,11.562-7.104,19.332-17.678,19.332-11.393,0-18.444-10.084-18.444-19.427v-.19c0-12,9.574-19.428,18.444-19.428,10.078,0,17.678,8.392,17.678,19.522v.191Z" fill="#0f1820"/>
    <path d="M319.119,52.489c-5.11-6.045-11.362-9.103-18.637-9.103-12.389,0-25.205,10.036-25.205,26.832v.191c0,16.915,12.816,27.024,25.205,27.024,7.386,0,13.638-2.94,18.637-8.749v7.303h7.622v-51.451h-7.622v7.954ZM319.406,70.505c0,9.377-7.051,19.498-18.444,19.498-10.574,0-17.678-7.797-17.678-19.402v-.192c0-11.17,7.6-19.593,17.678-19.593,8.87,0,18.444,7.455,18.444,19.499v.191Z" fill="#0f1820"/>
  </g>
  <path d="M542.7,47.124c0-1.005-.787-1.521-1.847-1.521h-2.173v4.808h.924v-1.657h1.005l1.141,1.657h1.113l-1.276-1.82c.653-.19,1.114-.679,1.114-1.467ZM540.772,47.993h-1.168v-1.576h1.168c.625,0,.978.272.978.788,0,.461-.353.788-.978.788Z" fill="#0f1820"/>
  <path d="M540.528,43.349c-2.635,0-4.726,2.173-4.726,4.753v.027c0,2.58,2.063,4.726,4.726,4.726,2.634,0,4.725-2.172,4.725-4.753v-.027c0-2.581-2.064-4.726-4.725-4.726ZM544.71,48.102c0,2.309-1.819,4.237-4.182,4.237-2.391,0-4.183-1.902-4.183-4.21v-.027c0-2.309,1.82-4.237,4.183-4.237,2.39,0,4.182,1.902,4.182,4.21v.027Z" fill="#0f1820"/>
  <path d="M488.267,82.333c-4.546,5.065-9.687,7.633-15.277,7.633-10.451,0-18.637-8.63-18.637-19.647v-.191c0-10.909,8.018-19.453,18.254-19.453,6.85,0,11.366,3.644,15.226,7.582l.968.988v-10.511c-3.889-2.952-9.018-5.378-16.1-5.378-14.53,0-26.352,12.095-26.352,26.962v.192c0,14.762,11.822,26.772,26.352,26.772,6.173,0,11.325-1.727,16.1-5.464v-10.08l-.534.594Z" fill="#0f1820"/>
  <path d="M514.568,43.325c-10.168,0-17.547,6.323-17.547,15.034v.192c0,9.71,9.649,12.51,17.403,14.76l.416.121c6.487,1.836,11.855,3.735,11.855,8.393v.193c0,4.626-4.239,7.856-10.307,7.856-5.751,0-11.344-2.066-16.625-6.139l-1.18-.911-.04.054v9.251c5.207,3.157,11.71,5.113,17.557,5.113,10.612,0,18.314-6.646,18.314-15.803v-.192c0-10.336-10.737-13.362-17.142-15.167-7.34-2.12-12.535-3.942-12.535-8.106v-.192c0-4.174,3.964-7.088,9.64-7.088,4.633,0,9.684,1.656,14.221,4.661l1.244.824v-8.893c-4.725-2.472-10.317-3.962-15.274-3.962Z" fill="#0f1820"/>
  <path d="M215.687,44.449h-8.361l-17.033,42.541-18.951-42.541h-8.727l23.916,51.249c-1.206,3.024-5.292,13.153-5.494,13.678l-.517,1.345h7.353l27.814-66.272Z" fill="#0f1820"/>
</svg>